<?xml version="1.0" encoding="utf-8"?>
<!-- Generator: Adobe Illustrator 23.0.1, SVG Export Plug-In . SVG Version: 6.00 Build 0)  -->
<svg version="1.1" id="Warstwa_1" xmlns="http://www.w3.org/2000/svg" xmlns:xlink="http://www.w3.org/1999/xlink" x="0px" y="0px"
	 viewBox="0 0 513.2 534.2" style="enable-background:new 0 0 513.2 534.2;" xml:space="preserve">
<style type="text/css">
	.st0{fill:#FE9E84;}
	.st1{fill:none;}
	.st2{fill:#D99785;}
	.st3{fill:#D99987;}
</style>
<title>github</title>
<path class="st0" d="M237.1,0.1h40c0.5,0.3,1.1,0.8,1.6,0.9c21.4,1.8,42.2,5.5,62.2,13.8c17.4,7.2,34.6,14.1,50.4,24.7
	c15,10,29.2,20.8,42.1,33.4c5.7,5.6,11,11.5,16,17.7c6.5,8.1,12.9,16.1,18.7,24.7c10.9,16.6,20,34.2,27,52.8
	c7.9,20.8,13.4,42.5,16.2,64.5c0.6,4.1-0.3,8.6,1.8,12.5v43c-1.1,0.6-0.9,1.6-1,2.6c-0.7,12.5-2.5,24.9-5.5,37.1
	c-6.4,27.7-16.9,54.3-31.2,78.8c-7.1,12.1-15.6,23.1-23.9,34.3s-18.6,20.2-28.7,29.5c-8.6,8-18.4,14.9-28.1,21.6
	c-15.8,10.9-33.3,18.8-51,25.9c-20.6,8.3-42.3,12.3-64.5,14.2c-19.8,1.7-39.5,1.6-59-1.5c-20.7-3.3-41.2-7.8-60.4-17.4
	c-15.4-7.8-31.5-14.1-45.2-25.1c-10-8-20.4-15.4-29.9-24.3c-14.5-13.5-26.8-28.7-38-44.8c-12.9-18.5-22.4-38.8-30.1-59.9
	C7.9,335.1,2.7,309.7,1.3,284c-0.9-14-0.7-28,0.6-41.9C3.1,229.6,5,217.2,7.7,205c5.1-22.2,12.9-43.7,23.3-64
	c11.3-22.4,26.2-42.2,42.6-61c5.7-6.5,12.5-11.9,18.6-17.9c10.6-10.5,23.7-18.2,36.2-26.4c15.8-10.6,33.8-16.9,51.5-23.7
	c14.1-5.4,29.2-8,44.2-10C228.4,1.3,233,2.1,237.1,0.1z M309.2,417.1c1-1.3,0.9-2.8,0.9-4.3c0-19.4,0-38.9,0-58.3
	c0-1.5,0.1-3-0.8-4.3c0-11.6-2.5-22.5-8.9-32.7c7.1-0.9,13.4-3.1,19.8-5.1c14-4.3,27.1-10.3,37.1-21.1c13-14.1,19.5-31.2,19.9-50.5
	c0.2-12.6,0-25.2-1.9-37.7c-2-12.8-5.4-24.9-14.9-34.3c-1.7-1.7-2.2-3.2-1.3-5.7c4.5-13.3,5.3-26.7,1.2-40.3c-2.2-7.3-2.1-7.4-9.4-5
	c-2.6,0.9-5.2,2.1-7.6,3.6c-9.1,5.5-16.1,13.1-21.6,22c-1.7,2.8-3,2.3-5,0.8c-5.7-4.3-12.7-5.4-19.2-6.8c-15.5-3.1-31.3-2.6-47-1.2
	c-8.5,0.7-16.7,3.3-24.1,7.5c-3.2,1.9-4.7,2.2-6.3-1.2c-0.7-1.1-1.4-2.2-2.3-3.2c-7.7-10.5-17.2-18.6-29.7-22.8
	c-2.4-0.8-3.9-0.1-4.6,2.2c-4.3,13-6,26.1-1.6,39.3c1.9,5.6,2.8,10.4-3.1,14.1c-0.8,0.5-1.1,1.6-1.7,2.4c-9.3,13-11,28.3-11.6,43.4
	c-0.7,15.3-1.5,30.7,3.6,45.9c4.3,12.8,11.1,23.7,21.2,32.2c13.7,11.6,30.5,16.8,47.5,20.9c3.6,0.9,3.5,1.6,2.1,4.2
	c-4.1,7.5-6.8,15.4-6.5,24.1c0.1,2.4-1.2,3.3-3.1,3.8c-8.6,2.7-17.3,2.7-26.1,1.5c-14.7-2-23.2-12.2-30.5-23.7
	c-7.6-11.9-16.8-20.9-32.3-19.7c-1.3,0.1-2.8-0.1-3.5,1.3c-0.9,1.6,0.8,2.3,1.5,3.3c3.4,5,8.6,8,12.3,12.8
	c6.2,8.1,10.3,17.3,15.1,26.2c3.6,6.6,7.8,12.9,13.6,17.5c15.5,12.3,33.4,12.8,51.9,9.3c0,11.6,0,23.3,0.1,34.9c0,1.9-0.5,4,1.1,5.7
	c24,0,48,0,71.9,0C306.5,418.1,308.1,418.5,309.2,417.1z"/>
<path class="st1" d="M237.1,0.1c-4.1,2-8.7,1.2-13,1.8c-15.1,2-30.1,4.6-44.2,10c-17.6,6.8-35.6,13.2-51.5,23.7
	c-12.4,8.3-25.6,15.9-36.1,26.5C86.1,68.1,79.3,73.5,73.7,80c-16.4,18.8-31.3,38.6-42.6,61c-10.4,20.3-18.2,41.8-23.3,64
	c-2.7,12.2-4.7,24.6-5.9,37.1C0.6,256,0.4,270,1.3,283.9c1.4,25.7,6.6,51.1,15.3,75.3c7.7,21.2,17.2,41.5,30.1,59.9
	c11.2,16.1,23.5,31.2,38,44.8c9.5,8.8,19.9,16.2,29.9,24.3c13.7,11,29.8,17.3,45.2,25.1c19.1,9.7,39.6,14.1,60.4,17.4
	c19.5,3.1,39.2,3.1,59,1.5c22.2-1.8,43.9-5.9,64.5-14.2c17.7-7.1,35.2-15,51-25.9c9.7-6.7,19.5-13.6,28.1-21.6
	c10-9.3,20.5-18.5,28.7-29.5s16.9-22.2,23.9-34.3c14.3-24.5,24.9-51.1,31.2-78.8c2.9-12.2,4.8-24.6,5.5-37.1c0-1-0.1-2,1-2.6
	c0,80.7,0,161.3,0.1,242c0,3.4-0.7,4.1-4.1,4.1c-168.3-0.1-336.7-0.1-505,0c-3.4,0-4.1-0.7-4.1-4.1c0.1-175.3,0.1-350.7,0-526
	C0,0.6,0.7,0,4.1,0C81.8,0.1,159.4,0.2,237.1,0.1z"/>
<path class="st1" d="M513.1,245.1c-2.1-3.9-1.2-8.4-1.8-12.5c-2.8-22.1-8.2-43.7-16.2-64.5c-7.1-18.5-16.2-36.2-27.1-52.7
	c-5.8-8.7-12.2-16.6-18.7-24.7c-5-6.2-10.3-12.1-16-17.7c-12.8-12.7-27.1-23.4-42.1-33.4c-15.8-10.6-33-17.5-50.4-24.7
	c-20-8.3-40.9-12-62.2-13.8c-0.6,0-1.1-0.6-1.6-0.9c77.3,0,154.5,0,231.8-0.1c3.6,0,4.4,0.8,4.3,4.3
	C513.1,84.6,513,164.9,513.1,245.1z"/>
<path class="st1" d="M232,377.4c-18.5,3.5-36.3,3-51.9-9.3c-5.9-4.6-10.1-10.9-13.6-17.5c-4.8-8.9-8.9-18.1-15.1-26.2
	c-3.7-4.8-8.9-7.8-12.3-12.8c-0.7-1-2.4-1.7-1.5-3.3c0.7-1.4,2.2-1.2,3.5-1.3c15.5-1.2,24.7,7.8,32.3,19.7
	c7.4,11.5,15.8,21.7,30.6,23.7c8.8,1.2,17.5,1.1,26.1-1.5c1.9-0.6,3.1-1.5,3.1-3.8c-0.3-8.7,2.4-16.6,6.5-24.1
	c1.5-2.6,1.5-3.3-2.1-4.2c-17-4.1-33.8-9.4-47.5-20.9c-10.1-8.5-16.9-19.5-21.2-32.2c-5.1-15.1-4.3-30.6-3.5-45.9
	c0.7-15.1,2.3-30.4,11.6-43.4c0.6-0.8,0.9-1.9,1.7-2.4c5.8-3.7,5-8.5,3.1-14.1c-4.4-13.2-2.7-26.4,1.6-39.3c0.8-2.3,2.2-3,4.6-2.2
	c12.5,4.2,22.1,12.3,29.7,22.8c0.8,1,1.6,2.1,2.2,3.2c1.6,3.4,3.1,3.1,6.3,1.2c7.4-4.2,15.6-6.8,24.1-7.5c15.7-1.4,31.5-1.9,47,1.2
	c6.5,1.3,13.5,2.5,19.2,6.8c2,1.5,3.3,2,5-0.8c5.5-8.9,12.5-16.6,21.6-22c2.4-1.5,4.9-2.7,7.6-3.6c7.3-2.4,7.2-2.3,9.4,5
	c4.1,13.6,3.3,27.1-1.2,40.3c-0.8,2.5-0.4,3.9,1.3,5.7c9.5,9.4,13,21.5,14.9,34.3c1.9,12.5,2.2,25.1,1.9,37.7
	c-0.4,19.3-6.9,36.4-19.9,50.5c-10,10.8-23.1,16.8-37.1,21.1c-6.4,2-12.6,4.2-19.8,5.1c6.4,10.2,8.9,21.1,8.9,32.7v66.9
	c-1.1,1.4-2.7,1-4.2,1c-24,0-48,0-71.9,0c0-11.8,0-23.6-0.1-35.5C233,380.8,233.8,378.9,232,377.4z"/>
<path class="st2" d="M309.2,417.1v-66.9c1,1.3,0.8,2.8,0.8,4.3c0,19.4,0,38.9,0,58.3C310.1,414.3,310.2,415.8,309.2,417.1z"/>
<path class="st3" d="M232,377.4c1.8,1.4,1,3.4,1,5.1c0.1,11.8,0.1,23.6,0.1,35.5c-1.6-1.7-1.1-3.8-1.1-5.7
	C232,400.7,232,389.1,232,377.4z"/>
</svg>
