<?xml version="1.0" encoding="utf-8"?>
<!-- Generator: Adobe Illustrator 23.0.1, SVG Export Plug-In . SVG Version: 6.00 Build 0)  -->
<svg version="1.1" id="Warstwa_1" xmlns="http://www.w3.org/2000/svg" xmlns:xlink="http://www.w3.org/1999/xlink" x="0px" y="0px"
	 viewBox="0 0 64.15 65.12" style="enable-background:new 0 0 64.15 65.12;" xml:space="preserve">
<style type="text/css">
	.st0{fill:none;}
</style>
<rect x="4.06" y="8.82" class="st0" width="57.53" height="40.15"/>
<g>
	<path d="M2.72,48.22V12.45h11.52c3.16,0,6,0.72,8.52,2.15c2.52,1.43,4.49,3.46,5.91,6.07c1.42,2.61,2.13,5.54,2.15,8.78v1.65
		c0,3.28-0.69,6.21-2.08,8.81c-1.38,2.6-3.33,4.63-5.85,6.09c-2.51,1.47-5.32,2.21-8.41,2.22H2.72z M11.35,19.11v22.48h3
		c2.47,0,4.37-0.88,5.7-2.64c1.33-1.76,1.99-4.38,1.99-7.85v-1.55c0-3.46-0.66-6.06-1.99-7.81s-3.26-2.63-5.8-2.63H11.35z"/>
	<path d="M48.43,51.55c0-1.26-0.46-2.24-1.38-2.95c-0.92-0.7-2.53-1.43-4.83-2.19c-2.3-0.75-4.19-1.48-5.65-2.19
		c-4.76-2.28-7.14-5.4-7.14-9.38c0-1.98,0.59-3.73,1.78-5.24c1.19-1.51,2.86-2.69,5.03-3.54c2.17-0.84,4.61-1.27,7.32-1.27
		c2.64,0,5.01,0.46,7.1,1.38c2.09,0.92,3.72,2.22,4.88,3.92c1.16,1.7,1.74,3.63,1.74,5.81h-8.83c0-1.46-0.46-2.59-1.37-3.39
		c-0.92-0.8-2.16-1.2-3.72-1.2c-1.58,0-2.83,0.34-3.75,1.02c-0.92,0.68-1.38,1.54-1.38,2.59c0,0.92,0.5,1.75,1.51,2.49
		c1.01,0.75,2.78,1.52,5.32,2.31c2.54,0.79,4.63,1.65,6.26,2.57c3.97,2.23,5.95,5.3,5.95,9.21c0,3.13-1.21,5.58-3.63,7.37
		c-2.42,1.79-5.74,2.68-9.97,2.68c-2.98,0-5.67-0.52-8.09-1.56c-2.41-1.04-4.23-2.46-5.45-4.27c-1.22-1.81-1.83-3.89-1.83-6.25h8.88
		c0,1.92,0.51,3.33,1.53,4.24c1.02,0.91,2.67,1.36,4.96,1.36c1.46,0,2.62-0.31,3.47-0.92C48.01,53.53,48.43,52.67,48.43,51.55z"/>
</g>
</svg>
