<svg id="Warstwa_1" data-name="Warstwa 1" xmlns="http://www.w3.org/2000/svg" viewBox="0 0 101.65 133.76"><title>bs-icon</title><path d="M46.12,40.36H66.41V174.13H46.12Zm12,116.38H97.49q15.49,0,22.59-5.43t7.1-15.27v-.28a24.9,24.9,0,0,0-2.55-11.68,17,17,0,0,0-8-7.5Q111.07,114,102.49,114H58.11V97h44.38q11.3,0,17-4.87t5.75-14.45q0-10-6.4-15t-19.19-5H58.11V40.36h45.28q14.08,0,23.59,4.42a30.88,30.88,0,0,1,14.19,12.51q4.7,8.1,4.7,19.32A29.42,29.42,0,0,1,143,89.53a27.31,27.31,0,0,1-8.85,10.31,34.67,34.67,0,0,1-14.74,5.75,33.51,33.51,0,0,1,15.19,5.75,30.47,30.47,0,0,1,9.8,11.36,32.55,32.55,0,0,1,3.39,14.72v.27a35.28,35.28,0,0,1-5.19,19.14,34,34,0,0,1-14.89,12.79,53.2,53.2,0,0,1-22.59,4.51h-47Z" transform="translate(-46.12 -40.36)"/></svg>