<svg id="Warstwa_1" data-name="Warstwa 1" xmlns="http://www.w3.org/2000/svg" viewBox="0 0 267 273"><defs><style>.cls-1{fill:#f79e86;}</style></defs><title>css-icon</title><path class="cls-1" d="M9,128.36q13.17,0,20.41-5.64a18.74,18.74,0,0,0,7.25-15.66V58q0-23.86,16.16-37T98.42,7.89v30c-8.07,0-14.32,1.88-18.68,5.64s-6.59,9.11-6.59,16v52.18q0,22.56-15.92,32.33T9,153.8ZM52.82,267.8q-16.16-13.07-16.16-36.92V181.66A18.79,18.79,0,0,0,29.41,166Q22.15,160.35,9,160.35V134.91q32.31,0,48.23,10.16t15.92,33.57v50.45q0,10.5,6.59,16.13c4.36,3.76,10.61,5.64,18.68,5.64v30Q68.94,280.85,52.82,267.8Z" transform="translate(-9 -7.89)"/><path class="cls-1" d="M227.82,145q-16-10.11-16-33.32V59.53c0-6.89-2.2-12.24-6.59-16s-10.61-5.64-18.68-5.64v-30q29.47,0,45.6,13.11t16.16,37v47.72a18.76,18.76,0,0,0,7.25,15.66Q262.85,127,276,127v28.06Q243.75,155.13,227.82,145ZM186.63,250.82c8.07,0,14.32-1.88,18.68-5.64s6.54-9.22,6.54-16.13V178.59q0-24,15.92-34.48T276,133.62v28q-13.17,0-20.41,5.64A18.79,18.79,0,0,0,248.34,183v47.83q0,23.87-16.16,36.92t-45.6,13Z" transform="translate(-9 -7.89)"/></svg>