<svg id="Warstwa_1" data-name="Warstwa 1" xmlns="http://www.w3.org/2000/svg" viewBox="0 0 760.01 760.01"><defs><style>.cls-1{fill:#020000;}</style></defs><title>email</title><path class="cls-1" d="M741,927.09H680c-.45-.39-.86-1.07-1.35-1.13-6.36-.76-12.78-1.14-19.1-2.17-11.77-1.93-23.56-3.86-35.2-6.47-8.57-1.91-16.94-4.79-25.33-7.44-11.4-3.59-23-6.82-34-11.25-10.6-4.24-20.8-9.56-30.93-14.88-19-10-37.59-20.48-54-34.47-7-5.94-15-10.76-21.5-17.13-13.1-12.83-26-26-38.06-39.75a370.38,370.38,0,0,1-26.29-34.2,256.51,256.51,0,0,1-19.13-32.09c-7.74-15.72-14.51-31.93-21.19-48.14a230.33,230.33,0,0,1-8.66-26c-2.78-10-5.24-20.23-7.15-30.49-2.46-13.11-4.25-26.35-6.29-39.54-.66-4.28-1.22-8.57-1.82-12.86v-43c.52-.75,1.52-1.52,1.5-2.26-.42-16,1.94-31.8,5.34-47.29,3.56-16.24,8.65-32.16,13.33-48.14,5-16.91,10.67-33.55,19.44-48.94,8.89-15.59,17.3-31.48,27-46.56C404.18,321.1,413,310,422,299.2c6.06-7.3,13.39-13.55,20.07-20.36,3.94-4,7.42-8.52,11.61-12.22,6.15-5.44,12.57-10.61,19.21-15.44,13.41-9.74,26.63-19.83,40.67-28.59,20.74-12.92,42.35-24.35,65.75-31.9,11.35-3.66,22.73-7.23,34.2-10.5,7.53-2.14,15.18-4,22.87-5.44,9.17-1.75,18.41-3.18,27.66-4.37,8-1,16.06-1.51,24.09-2.3.32,0,.58-.66.87-1h43c.62.4,1.2,1.1,1.85,1.17,7.53.74,15.12,1.08,22.6,2.14,11.66,1.65,23.39,3.15,34.83,5.83,14.07,3.31,28,7.45,41.75,11.84a309.87,309.87,0,0,1,29.42,11.18c9.63,4.18,18.94,8.77,28.19,13.58a231.58,231.58,0,0,1,23.42,13.38c12.32,8.39,24.61,16.94,36.11,26.4A397.16,397.16,0,0,1,986,285.3c13.8,14.52,26.95,29.78,37.42,47,9.24,15.2,18.91,30.18,27.2,45.88A281,281,0,0,1,1067,416.51c5.28,15,9.67,30.4,13.53,45.85,2.84,11.4,4.34,23.15,6.2,34.78,1,6,1.36,12.07,2.11,18.1.08.66.77,1.24,1.17,1.85v61a11.34,11.34,0,0,0-1.2,2.85c-1.44,11.39-2,22.95-4.32,34.18a479.27,479.27,0,0,1-20.29,71c-9.7,26.29-23.82,50.24-38.85,73.68a320.57,320.57,0,0,1-49.19,59.1c-10.72,10.21-21.91,20-33.42,29.29a254.9,254.9,0,0,1-27.37,19.23c-11.1,6.78-22.6,13-34.25,18.75S857.68,897.24,845.66,902A325.86,325.86,0,0,1,812.8,913.2c-12.1,3.4-24.4,6.26-36.76,8.5-11.28,2-22.78,2.93-34.17,4.37C741.54,926.11,741.29,926.74,741,927.09ZM714.1,594c-10.6-9.11-20.91-17.86-31.1-26.75-11.69-10.22-23.28-20.55-34.88-30.87-2-1.8-3.16-2-5,.58-7.78,10.79-15.83,21.39-23.85,32-13.76,18.22-27.63,36.36-41.36,54.61-9.47,12.59-18.77,25.32-28.17,38-7.49,10.09-15,20.14-22.67,30.39H901l-23.1-30.8L825.25,591c-13.5-18-27-36-40.39-54.07-1.88-2.56-3-2.33-5-.56-7.55,6.64-15.2,13.19-22.77,19.82C742.81,568.67,728.57,581.2,714.1,594ZM513.49,396.2c6.23,5.61,11.74,10.71,17.4,15.63,11.83,10.28,23.78,20.42,35.61,30.7,8.85,7.7,17.53,15.59,26.38,23.29,11.94,10.4,24,20.64,36,31.05,9.34,8.16,18.47,16.54,27.8,24.7,17.76,15.54,35.68,30.9,53.34,46.56,2.92,2.6,5,2.53,7.62.22l26.73-23.65c8.63-7.63,17.24-15.29,25.93-22.85,12-10.39,24-20.65,36-31.07,9.33-8.15,18.46-16.54,27.8-24.69q22.14-19.33,44.42-38.49C885,422,891.58,416.55,898,410.92c5.37-4.68,10.6-9.51,16.39-14.72Zm-2,293.45L634.9,525,511.52,417.2Zm404.36-.73v-271c-3.86,3.31-7.23,6.15-10.55,9.07-8.8,7.75-17.55,15.57-26.38,23.29-12.55,11-25.17,21.86-37.73,32.82-6.23,5.43-12.32,11-18.57,16.42-8.85,7.66-17.73,15.29-26.72,22.79-2.34,1.94-2.31,3.76-.71,5.9q20.61,27.66,41.26,55.29,28.2,37.68,56.46,75.3c7.39,9.7,14.85,19.4,23,30.08Z" transform="translate(-330 -167.08)"/></svg>