<svg id="Warstwa_1" data-name="Warstwa 1" xmlns="http://www.w3.org/2000/svg" viewBox="0 0 266 266"><defs><style>.cls-1{fill:#f79e86;}</style></defs><title>git-icon</title><path class="cls-1" d="M269,156.74,152.86,272.88a17.14,17.14,0,0,1-24.22,0l-24.12-24.12,30.61-30.59a20.34,20.34,0,0,0,25.81-25.93l29.49-29.49a20.37,20.37,0,1,0-12.21-11.5l-27.5,27.51V106.39a20.76,20.76,0,0,0,5.39-3.86,20.38,20.38,0,1,0-28.82,0A20.66,20.66,0,0,0,134,107v73a20.42,20.42,0,0,0-11.1,26.65l0,.09L92.74,236.92,13,157.28a17.12,17.12,0,0,1,0-24.22v0L129.15,16.9a17.17,17.17,0,0,1,24.24,0L269,132.51a17.13,17.13,0,0,1,0,24.23h0" transform="translate(-8 -11.89)"/></svg>