<?xml version="1.0" encoding="utf-8"?>
<!-- Generator: Adobe Illustrator 23.0.1, SVG Export Plug-In . SVG Version: 6.00 Build 0)  -->
<svg version="1.1" id="Warstwa_1" xmlns="http://www.w3.org/2000/svg" xmlns:xlink="http://www.w3.org/1999/xlink" x="0px" y="0px"
	 viewBox="0 0 512.3 533.3" style="enable-background:new 0 0 512.3 533.3;" xml:space="preserve">
<style type="text/css">
	.st0{fill:#F79D85;}
</style>
<title>githubb</title>
<path class="st0" d="M226.7-113.4h59.3c0.8,0.4,1.6,1.2,2.4,1.3c31.7,2.5,62.6,7.8,92.3,19.7c25.8,10.3,51.4,20.1,74.8,35.2
	C477.8-43,499-27.6,518-9.6c8.4,7.9,16.3,16.4,23.7,25.2c9.6,11.5,19.2,22.9,27.7,35.2c16.2,23.6,29.6,48.8,40.1,75.2
	c11.8,29.6,19.9,60.5,24,92c0.8,5.9-0.5,12.2,2.7,17.8v61.3c-1.6,0.8-1.4,2.4-1.5,3.7c-1,17.8-3.7,35.6-8.1,52.9
	c-9.4,39.4-25.1,77.3-46.3,112.2c-10.5,17.3-23.2,33-35.5,48.9c-12.3,16-27.6,28.9-42.6,42.2c-12.8,11.4-27.3,21.2-41.7,30.8
	c-23.4,15.6-49.4,26.8-75.7,37c-30.6,11.8-62.8,17.6-95.7,20.2c-29.3,2.4-58.6,2.3-87.5-2.1c-30.8-4.7-61.2-11-89.6-24.8
	C89.1,607.1,65.3,598,45,582.4c-14.8-11.4-30.2-22-44.3-34.6c-21.6-19.3-39.8-40.9-56.4-63.8c-19.1-26.3-33.2-55.2-44.6-85.4
	c-13-34.5-20.6-70.7-22.7-107.3c-1.3-19.9-1-39.9,0.9-59.7c1.8-17.8,4.6-35.4,8.6-52.8C-106,147-94.4,116.4-79,87.5
	c16.8-31.9,38.8-60.1,63.2-86.9c8.4-9.3,18.5-17,27.6-25.5C27.5-40,47-50.9,65.5-62.7c23.5-15,50.2-24.1,76.3-33.8
	c21-7.7,43.3-11.4,65.6-14.3C213.8-111.6,220.6-110.4,226.7-113.4z M333.7,480.9c1.5-1.9,1.3-4,1.3-6.1v-83.1c0-2.1,0.2-4.3-1.2-6.2
	c0-16.5-3.7-32.1-13.2-46.7c10.6-1.3,19.8-4.5,29.3-7.3c20.8-6.1,40.3-14.7,55-30c19.3-20.1,29-44.5,29.5-71.9
	c0.3-18,0-35.9-2.9-53.7c-3-18.2-8.1-35.4-22.1-48.9c-2.6-2.5-3.2-4.5-2-8.1c6.7-18.9,7.8-38.1,1.8-57.5
	c-3.2-10.4-3.1-10.6-13.9-7.1c-3.9,1.3-7.7,3-11.2,5.1c-13.6,7.8-23.9,18.6-32.1,31.4c-2.5,4-4.5,3.3-7.4,1.1
	c-8.4-6.1-18.9-7.8-28.5-9.6c-22.9-4.4-46.4-3.6-69.7-1.7c-12.6,1-24.8,4.7-35.8,10.7c-4.7,2.7-7,3.1-9.4-1.7
	c-1-1.6-2.1-3.2-3.3-4.6c-11.4-15-25.5-26.5-44.1-32.5c-3.6-1.2-5.7-0.2-6.9,3.1c-6.4,18.5-8.9,37.2-2.4,56c2.8,8,4.1,14.8-4.6,20.1
	c-1.1,0.7-1.7,2.3-2.5,3.4c-13.8,18.5-16.3,40.3-17.3,61.8c-1,21.8-2.3,43.8,5.3,65.4c6.3,18.2,16.4,33.7,31.4,45.9
	c20.3,16.5,45.2,23.9,70.5,29.8c5.3,1.2,5.3,2.2,3.1,6c-6.1,10.7-10.1,22-9.7,34.3c0.1,3.3-1.8,4.6-4.6,5.5
	c-12.7,3.8-25.7,3.9-38.7,2.2c-21.8-2.9-34.4-17.4-45.3-33.8c-11.3-16.9-24.9-29.7-47.9-28.1c-2,0.1-4.2-0.2-5.3,1.8
	c-1.3,2.3,1.2,3.2,2.2,4.7c5,7.1,12.8,11.4,18.2,18.2c9.2,11.6,15.3,24.7,22.4,37.3c5.3,9.4,11.5,18.3,20.2,25
	c23.1,17.5,49.5,18.3,77,13.3c0,16.6,0,33.2,0.1,49.7c0,2.8-0.8,5.7,1.6,8.1h106.7C329.7,482.4,332.1,483,333.7,480.9z"/>
</svg>
