<svg id="Warstwa_1" data-name="Warstwa 1" xmlns="http://www.w3.org/2000/svg" viewBox="0 0 147.9 111.52"><title>js-icon</title><path d="M35.76,155.42a29.16,29.16,0,0,1-10.84-9.92l11.46-9a13.55,13.55,0,0,0,5.56,5.71,17,17,0,0,0,8.43,2q8.18,0,12.66-5.56T67.52,123V48.56h14V123.1q0,11.35-3.64,19.39a26.64,26.64,0,0,1-10.63,12.25q-7,4.22-16.88,4.21A30.75,30.75,0,0,1,35.76,155.42Z" transform="translate(-24.92 -47.43)"/><path d="M129,159l-6.45-1.5a49.1,49.1,0,0,1-12-4.51A50.85,50.85,0,0,1,100,145.42l8.71-11.72a38.69,38.69,0,0,0,12.56,8.11,40,40,0,0,0,14.88,2.71q10.84,0,16.81-4.4t6-12.43v-.08c0-3.81-.91-6.82-2.71-9a16.08,16.08,0,0,0-7-5,71.71,71.71,0,0,0-11.08-3,1.33,1.33,0,0,0-.45-.08,1.27,1.27,0,0,1-.44-.07l-1-.23A99.63,99.63,0,0,1,120,106a23.15,23.15,0,0,1-10.74-8.65q-4.45-6.27-4.46-17.84v-.08q0-10.14,4.15-17.32A26.81,26.81,0,0,1,121,51.19q8-3.77,19.14-3.76a43.36,43.36,0,0,1,10.53,1.28,49.07,49.07,0,0,1,10.22,3.79,58,58,0,0,1,9.91,6.35l-8,12.17a45.68,45.68,0,0,0-11.36-6.87,30,30,0,0,0-11.35-2.29q-10.21,0-15.88,4.47T118.63,79v.08c0,3.75,1,6.71,2.91,8.86a17.34,17.34,0,0,0,7.28,4.77,100.67,100.67,0,0,0,12.1,3.2,4.06,4.06,0,0,0,.52.11c.16,0,.33.06.51.11s.48.1.76.15l.75.15a78.2,78.2,0,0,1,15.13,4.81,24.14,24.14,0,0,1,10.15,9q4.08,6.19,4.08,16.94v.15q0,10-4.32,17.1A27.5,27.5,0,0,1,156,155.23Q147.79,159,136.19,159Z" transform="translate(-24.92 -47.43)"/></svg>