<?xml version="1.0" encoding="utf-8"?>
<!-- Generator: Adobe Illustrator 23.0.1, SVG Export Plug-In . SVG Version: 6.00 Build 0)  -->
<svg version="1.1" id="Warstwa_1" xmlns="http://www.w3.org/2000/svg" xmlns:xlink="http://www.w3.org/1999/xlink" x="0px" y="0px"
	 viewBox="0 0 1478.1 908.5" style="enable-background:new 0 0 1478.1 908.5;" xml:space="preserve">
<style type="text/css">
	.st0{fill:#FE9E84;}
</style>
<title>linkedin</title>
<path class="st0" d="M1089.3,386.7c-0.4-0.5-0.6-1.2-0.6-1.8c0,0,0-0.1,0-0.1c0,0,0,0,0-0.1c-0.1-0.3-0.1-0.6-0.1-0.9c0,0,0,0,0,0
	c0-0.1,0-0.3,0-0.4c0,0,0,0,0,0c-0.1-0.6-0.1-1.2,0-1.8c-1.6-5.4-0.9-11.2-1.6-16.7c-3.7-28.7-10.5-56.9-20.4-84.2
	c-12.9-35.2-31.1-68.3-54-98.1c-18.6-24.4-40.1-46.5-64.1-65.8c-23.1-18.9-48.3-34.9-75.2-47.7c-33.1-15.7-68.4-26.6-104.6-32.4
	c-26.9-4.3-54.2-5.7-81.4-4.2c-31.6,1.6-62.8,7.4-92.9,17.2C562,60.3,531,74.9,502.3,93.2c-22.1,14.3-42.7,30.9-61.2,49.6
	c-56.2,56.3-93.5,128.7-106.7,207.2c-4.8,28-6.3,56.4-4.6,84.7c2.8,45.2,13.6,89.5,31.8,130.9c12.2,27.8,27.7,54,46.1,78.1
	c18.4,24,39.7,45.6,63.3,64.4c22.1,17.8,46.2,33.2,71.6,45.8c33.7,16.5,69.6,27.9,106.6,33.8c0.7,0.1,1.4,0.2,2.1,0.2
	c0.1,0,0.2,0.1,0.3,0.1c3,0.5,6,1.2,9,1.8c0.1,0,0.2,0,0.3,0c4.6,0.7,9.2,1.6,13.9,1.9c1.5,0.1,3,0.1,4.5,0.2
	c6.7,0.1,13.5-0.4,20.3-0.3c8.5,0.1,17.1,0,25.6,0c0.8,0,1.7,0,2.5-0.1c0.5-0.2,1-0.3,1.6-0.3c1.6,0,3.3-0.1,5-0.1
	c2-0.1,4-0.2,6-0.1c5.4-1.6,11.3-0.8,16.8-1.5c29.8-3.9,59-11.2,87.2-21.7c34.8-13.2,67.5-31.5,96.9-54.3
	c19.3-15.2,37.2-32,53.5-50.3c20.7-23.2,38.5-49,52.8-76.6c9.3-17.8,17-36.5,23.1-55.6c6.5-20.2,11.4-40.8,14.7-61.8
	c1.1-7.3,1.8-14.7,2.7-22.1c0-0.3,0.1-0.7,0.1-1.1c0.2-0.7,0.3-1.4,0.3-2.1c0-0.1,0-0.2,0-0.3c0.3-1.1,0.6-2.3,0.7-3.5c0,0,0,0,0,0
	c0.1-0.1,0.1-0.1,0.1-0.2c0.1-6,0.2-11.9,0.4-17.9v-19.4C1089.5,397.4,1089,391.9,1089.3,386.7z M547.4,169L547.4,169
	c29.1,0,51.1,22.5,51.1,52c0,29-22.5,51.1-52.1,51.1c-29.1,0-51-22.4-51-51.9C495.5,191.2,518,169,547.4,169z M598.7,609.2
	c0,5.9-1.4,7.8-7.6,7.8c-29.2-0.4-58.5-0.4-87.7,0c-6.7,0.1-8.1-2.1-8.1-8.3c0.2-47.3,0.1-94.5,0.1-141.7h0.1
	c0-46.4,0.1-92.9-0.2-139.1c0-6.9,1.6-9.2,8.8-9.1c28.7,0.4,57.4,0.2,86.1,0c5.9,0,8.4,1,8.4,7.8C598.6,420.8,598.6,515,598.7,609.2
	z M935.2,616.9c-24.2-0.4-48.3-0.4-72.5,0c-6.6,0.1-8.1-2-8.1-8.2c0.2-49.7,0.2-99.3,0-149c0.1-14.6-2.8-29.2-8.6-42.6
	c-10.4-23.6-34.7-27.6-53.6-25.2c-11.6,1.5-21.7,5.8-30,14.9c-8.3,9.1-12.1,19.8-14,31.4c-3.3,20-1.4,40.1-1.6,60.2
	c-0.3,36.8-0.3,73.5,0,110.3c0,6.2-1.6,8.3-8.1,8.2c-23.6-0.4-47.2-0.4-70.9,0c-7,0.1-8.4-2.3-8.4-8.7c0.2-46.7,0.1-93.4,0.1-140.1
	c0-47,0.1-93.9-0.3-140.9c0-6.7,1.9-8.6,8.6-8.5c22,0.4,44,0.3,66,0c5.8-0.1,8.2,1.4,7.8,7.6c-0.4,8.8,0,17.7,0,26.6
	c0,1.5-0.2,3.4,1.7,4.2c1.9,0.7,2.7-0.5,3.7-2c13.7-21,34.6-30.4,58.1-34.2c22.7-3.7,45.9-2.9,68.3,2.4
	c34.5,8.1,54.6,30.3,63.1,63.7c4.6,18.4,6.8,37.2,6.6,56.1c0,55-0.1,110.1,0.1,165.1C943.6,614.7,942.1,617.1,935.2,616.9z"/>
</svg>
