<svg id="Warstwa_2" data-name="Warstwa 2" xmlns="http://www.w3.org/2000/svg" viewBox="0 0 201.4 188.07"><defs><style>.cls-1{fill:#f79e86;}.cls-2{fill:#fff;}</style></defs><title>react-icon2</title><path class="cls-1" d="M206.56,114.09q-3.21-1.16-6.48-2.14c.36-1.54.69-3.09,1-4.64,4.91-25,1.7-45.16-9.26-51.79-10.51-6.36-27.69.27-45,16.13q-2.56,2.34-5,4.83-1.63-1.65-3.33-3.24C120.3,56.29,102.07,49.15,91.13,55.8c-10.5,6.38-13.61,25.32-9.19,49,.44,2.35.93,4.69,1.49,7Q79.56,113,76,114.26C54.65,122.06,41,134.26,41,147c0,13.1,14.62,26.24,36.83,34.21q2.7,1,5.45,1.78c-.6,2.5-1.12,5-1.59,7.55-4.21,23.29-.92,41.78,9.55,48.12,10.81,6.54,29-.19,46.63-16.4q2.1-1.92,4.2-4.07,2.66,2.69,5.45,5.22c17.11,15.46,34,21.7,44.48,15.35,10.8-6.57,14.31-26.43,9.75-50.6-.35-1.84-.75-3.73-1.21-5.65q1.92-.59,3.75-1.23c23.09-8,38.11-21,38.11-34.28,0-12.74-14.06-25-35.81-32.91Z" transform="translate(-41.03 -53.13)"/><g id="Warstwa_1" data-name="Warstwa 1"><path class="cls-2" d="M201.6,172.7c-1.1.38-2.23.75-3.38,1.11A215.4,215.4,0,0,0,188,147a214.93,214.93,0,0,0,9.8-26.43c2.06.63,4.06,1.29,6,2,18.65,6.74,30,16.69,30,24.37,0,8.17-12.26,18.78-32.21,25.71Zm-8.27,17.21c2,10.68,2.3,20.34,1,27.9-1.2,6.78-3.6,11.31-6.58,13.12-6.36,3.86-19.92-1.16-34.56-14.38-1.68-1.51-3.37-3.13-5.08-4.84A210.09,210.09,0,0,0,165,189.2a192.11,192.11,0,0,0,27.28-4.41c.41,1.74.78,3.45,1.08,5.12Zm-83.64,40.35c-6.2,2.3-11.14,2.37-14.12.56-6.35-3.84-9-18.69-5.39-38.61.42-2.35.91-4.69,1.47-7a193.91,193.91,0,0,0,27.14,4.12,217,217,0,0,0,17.33,22.41q-1.86,1.9-3.84,3.71c-7.82,7.17-15.65,12.25-22.55,14.81Zm-29-57.61c-9.82-3.52-17.94-8.1-23.5-13.1-5-4.49-7.5-9-7.5-12.56,0-7.7,10.93-17.52,29.17-24.19,2.27-.84,4.6-1.6,6.92-2.29a223.81,223.81,0,0,0,9.81,26.69,228.48,228.48,0,0,0-9.93,27.08q-2.49-.75-5-1.63Zm9.74-69.58c-3.78-20.3-1.27-35.62,5.06-39.46,6.73-4.1,21.63,1.74,37.33,16.37,1,.94,2,1.92,3,2.93a214,214,0,0,0-17.16,22.29,201.43,201.43,0,0,0-26.85,4.4q-.78-3.24-1.39-6.51Zm86.86,22.53q-3-5.35-6.12-10.58a183.53,183.53,0,0,1,18.36,3.37c-1.73,5.84-3.9,12-6.44,18.21Q180.25,131,177.24,125.6ZM141.82,89.37a186.43,186.43,0,0,1,11.85,15q-11.89-.59-23.8,0C133.78,99,137.79,93.92,141.82,89.37Zm-35.7,36.28q-3,5.4-5.68,10.93c-2.51-6.24-4.65-12.37-6.4-18.29,5.75-1.35,11.87-2.45,18.26-3.29Q109.12,120.25,106.12,125.65Zm6.36,54a177.09,177.09,0,0,1-18.56-3.14c1.78-6,4-12.29,6.53-18.66q2.73,5.53,5.71,10.94t6.36,10.81ZM142,205.27c-4.08-4.62-8.15-9.73-12.12-15.22,3.85.16,7.79.24,11.78.24s8.16-.1,12.16-.28a188,188,0,0,1-11.78,15.23Zm41.1-47.77a187.27,187.27,0,0,1,6.76,18.59,174.58,174.58,0,0,1-18.76,3.36c2.12-3.54,4.19-7.12,6.18-10.75s4-7.42,5.84-11.2Zm-13.29,6.69q-4.59,8.34-9.71,16.41-9,.68-18.44.68t-18.23-.61q-5.22-8-9.85-16.38t-8.59-17q4-8.68,8.57-17h0q4.59-8.35,9.76-16.32c6-.47,12.13-.72,18.34-.72s12.39.25,18.37.73q5.13,8,9.71,16.26t8.68,17q-4,8.72-8.65,17.12ZM187.57,63.34c6.75,4.08,9.37,20.54,5.13,42.13-.26,1.41-.57,2.81-.89,4.21a196.72,196.72,0,0,0-26.93-4.47,212.62,212.62,0,0,0-17-22.3c1.5-1.53,3.05-3,4.63-4.46,14.87-13.58,28.76-19,35.09-15.11Z" transform="translate(-41.03 -53.13)"/><path class="cls-1" d="M141.73,128c9.93,0,18,8.45,18,18.88s-8,18.87-18,18.87-18-8.45-18-18.87,8-18.88,18-18.88" transform="translate(-41.03 -53.13)"/><path class="cls-1" d="M90.53,59.77" transform="translate(-41.03 -53.13)"/></g></svg>