<svg id="Warstwa_1" data-name="Warstwa 1" xmlns="http://www.w3.org/2000/svg" viewBox="0 0 283.46 293.75"><defs><style>.cls-1{fill:#373657;}.cls-2{fill:#f79e86;}</style></defs><title>react-icon</title><rect class="cls-1" width="283.46" height="283.46" rx="41.26"/><text x="-84.1" y="-88.72"/><path class="cls-2" d="M292.49,195.48q-3.21-1.15-6.48-2.14c.36-1.54.69-3.09,1-4.64,4.91-25,1.7-45.16-9.26-51.79-10.51-6.36-27.69.27-45,16.13q-2.57,2.34-5,4.83-1.63-1.65-3.33-3.24c-18.19-16.95-36.42-24.09-47.36-17.44-10.5,6.38-13.61,25.32-9.19,49,.44,2.35.93,4.69,1.49,7q-3.87,1.15-7.46,2.46c-21.32,7.8-34.94,20-34.94,32.72,0,13.1,14.62,26.24,36.83,34.21q2.7,1,5.45,1.78c-.6,2.5-1.12,5-1.59,7.55-4.21,23.29-.92,41.78,9.55,48.12,10.81,6.54,29-.19,46.63-16.4q2.1-1.92,4.2-4.07,2.66,2.69,5.45,5.22c17.11,15.46,34,21.7,44.48,15.35,10.8-6.57,14.31-26.43,9.75-50.6-.35-1.84-.75-3.73-1.21-5.65q1.92-.58,3.75-1.23c23.09-8,38.11-21,38.11-34.28,0-12.74-14.06-25-35.81-32.91Z" transform="translate(-84.1 -88.72)"/><path class="cls-1" d="M287.48,254.1c-1.1.38-2.23.75-3.38,1.11a217.92,217.92,0,0,0-10.2-26.78A216.58,216.58,0,0,0,283.7,202q3.09.94,6,2c18.64,6.74,30,16.69,30,24.37,0,8.17-12.27,18.78-32.21,25.71Zm-8.27,17.21c2,10.68,2.3,20.34,1,27.9-1.2,6.78-3.61,11.31-6.59,13.12-6.35,3.86-19.92-1.16-34.56-14.38-1.68-1.51-3.37-3.13-5.07-4.84a210.73,210.73,0,0,0,16.89-22.51,191.66,191.66,0,0,0,27.27-4.41c.41,1.74.78,3.45,1.09,5.12Zm-83.65,40.35c-6.2,2.3-11.14,2.37-14.12.56-6.35-3.84-9-18.69-5.39-38.61q.64-3.53,1.47-7a194,194,0,0,0,27.14,4.12A217.52,217.52,0,0,0,222,293.14q-1.87,1.91-3.84,3.71c-7.82,7.17-15.65,12.25-22.55,14.81Zm-29.05-57.61c-9.82-3.52-17.93-8.1-23.49-13.1-5-4.49-7.51-8.95-7.51-12.56,0-7.7,10.93-17.52,29.17-24.19,2.28-.84,4.6-1.6,6.93-2.29a222.7,222.7,0,0,0,9.81,26.69,226.93,226.93,0,0,0-9.93,27.08Q169,254.93,166.51,254.05Zm9.74-69.58c-3.78-20.3-1.27-35.62,5.06-39.46,6.73-4.1,21.63,1.74,37.33,16.37,1,.94,2,1.92,3,2.93a215.33,215.33,0,0,0-17.16,22.29A201,201,0,0,0,177.64,191q-.78-3.24-1.39-6.51ZM263.12,207q-3-5.36-6.12-10.58a184.74,184.74,0,0,1,18.36,3.37c-1.73,5.84-3.9,11.95-6.44,18.21q-2.79-5.56-5.8-11ZM227.7,170.77c4,4.51,7.94,9.55,11.85,15q-11.9-.59-23.8,0c3.91-5.42,7.92-10.45,11.95-15ZM192,207.05q-3,5.4-5.68,10.93c-2.51-6.24-4.65-12.37-6.4-18.29,5.75-1.35,11.87-2.45,18.26-3.29Q195,201.65,192,207.05Zm6.36,54a175.59,175.59,0,0,1-18.56-3.14c1.78-6,4-12.29,6.53-18.66q2.73,5.53,5.71,10.94T198.4,261Zm29.54,25.62c-4.08-4.62-8.15-9.73-12.12-15.22,3.85.16,7.79.24,11.78.24s8.16-.1,12.16-.28A190.22,190.22,0,0,1,227.94,286.64ZM269,238.9c2.69,6.44,5,12.67,6.76,18.59A172.84,172.84,0,0,1,257,260.85c2.12-3.54,4.19-7.12,6.18-10.75s4-7.42,5.84-11.2Zm-13.29,6.69Q251.12,253.93,246,262c-6,.45-12.15.68-18.44.68s-12.36-.21-18.23-.61q-5.22-8-9.85-16.38t-8.59-17q4-8.68,8.57-17h0q4.59-8.35,9.76-16.32c6-.47,12.13-.72,18.34-.72s12.39.25,18.37.73q5.13,8,9.71,16.26t8.68,17q-4,8.72-8.65,17.12Zm17.74-100.85c6.75,4.08,9.37,20.54,5.13,42.13-.27,1.41-.58,2.81-.9,4.21a196.94,196.94,0,0,0-26.93-4.47,211.08,211.08,0,0,0-17-22.3c1.5-1.53,3.05-3,4.63-4.46,14.87-13.58,28.76-18.95,35.09-15.11Z" transform="translate(-84.1 -88.72)"/><path class="cls-2" d="M227.6,209.51c9.93,0,18,8.45,18,18.88s-8.05,18.87-18,18.87-18-8.45-18-18.87,8-18.88,18-18.88" transform="translate(-84.1 -88.72)"/></svg>