<svg id="Warstwa_1" data-name="Warstwa 1" xmlns="http://www.w3.org/2000/svg" viewBox="0 0 270 136.39"><defs><style>.cls-1{fill:#f79e86;}</style></defs><title>rwd-icon</title><path class="cls-1" d="M41,161.68H29v48.24H6.73V73.54H43.08q16.41,0,25.66,10.77T78,114.71q0,14.22-3.89,23.58c-3,6.71-7.22,12-12.2,15.16l19.25,55v1.4H57.35ZM29,136.39h14.1a10.64,10.64,0,0,0,9.54-4.93,25.29,25.29,0,0,0,3.19-13.75,25.56,25.56,0,0,0-3.23-13.86,10.58,10.58,0,0,0-9.5-5H29Z" transform="translate(-6.73 -73.54)"/><path class="cls-1" d="M162.9,159.07l10.59-85.53h22.07L176,209.92H152.89l-12.36-77.75-12.11,77.75h-23L85.73,73.54H107.8l10.57,85.53,12.69-85.53h19Z" transform="translate(-6.73 -73.54)"/><path class="cls-1" d="M204.23,209.92V73.54H234c7.7-.18,15.29,2.65,22,8.2,6.47,5.4,11.76,13.43,15.24,23.13a97.58,97.58,0,0,1,5.53,33.48v6.29a98.47,98.47,0,0,1-5.36,33.57c-3.43,9.7-8.66,17.76-15.08,23.23-6.6,5.63-14.09,8.56-21.7,8.48Zm22.25-111v85.72h7.72q9.59,0,14.71-10.07t5.19-29.93v-5.91q0-19.77-5.19-29.79t-15-10Z" transform="translate(-6.73 -73.54)"/></svg>