<svg id="Warstwa_1" data-name="Warstwa 1" xmlns="http://www.w3.org/2000/svg" viewBox="0 0 200.15 72.76"><title>rwdd-icon</title><path d="M21,146.24V73.49H37.85a23.06,23.06,0,0,1,11,2.47A17.23,17.23,0,0,1,56,83a22.52,22.52,0,0,1,2.53,11,23.61,23.61,0,0,1-2.14,10.34,18.45,18.45,0,0,1-6,7.24,19.83,19.83,0,0,1-9.3,3.37l21.58,31.26H55.07L34.39,115.6H27v30.64Zm6-36.46h9.44a17.93,17.93,0,0,0,8.53-1.9,13.19,13.19,0,0,0,5.52-5.4,16.74,16.74,0,0,0,1.95-8.27q0-7.14-4.25-11.2T36.44,79H27Z" transform="translate(-21.03 -73.49)"/><path d="M89.39,146.24,70.13,73.49h6.64l16.24,64,19-64h4.64l19.07,64,16.16-64h6.64l-19.26,72.75h-6.73L114.36,86.67l-18.2,59.57Z" transform="translate(-21.03 -73.49)"/><path d="M173.84,146.24V73.49h14.63a29.83,29.83,0,0,1,12.85,2.78A32.23,32.23,0,0,1,211.72,84a36.13,36.13,0,0,1,7,11.6,42.31,42.31,0,0,1,0,28.6,35.87,35.87,0,0,1-6.94,11.57,31.89,31.89,0,0,1-10.42,7.72,30.37,30.37,0,0,1-12.87,2.75Zm6-6h8.1a24.6,24.6,0,0,0,10.61-2.32,26.48,26.48,0,0,0,8.59-6.44,29.86,29.86,0,0,0,5.72-9.65,35.91,35.91,0,0,0,0-23.92,30.12,30.12,0,0,0-5.72-9.66,26.4,26.4,0,0,0-8.59-6.46,24.6,24.6,0,0,0-10.61-2.32h-8.1Z" transform="translate(-21.03 -73.49)"/></svg>