<svg id="Warstwa_1" data-name="Warstwa 1" xmlns="http://www.w3.org/2000/svg" viewBox="0 0 263 220"><defs><style>.cls-1{fill:#f79e86;}</style></defs><title>sass-icon</title><path class="cls-1" d="M235.68,174.37a49.92,49.92,0,0,0-23.86,6.2c-2.45-5.39-4.9-10.2-5.33-13.75-.51-4.1-1.09-6.66-.51-11.56s3.17-12,3.1-12.45-.58-3.07-5.8-3.14-9.87,1.12-10.44,2.65a81.21,81.21,0,0,0-2.22,8.75c-.94,5.39-10.61,24.51-16.08,34.48-1.8-4-3.31-7.32-3.68-10.05-.5-4.1-1.08-6.67-.5-11.56s3.17-12,3.1-12.45-.58-3.07-5.8-3.15-9.87,1.13-10.44,2.65-1.08,5.18-2.23,8.76-13.91,35.43-17.29,43.71c-1.73,4.25-3.25,7.63-4.26,9.88a2.24,2.24,0,0,1-.22.4c-.93,2-1.44,3-1.44,3v.09c-.71,1.43-1.5,2.81-1.86,2.81s-.8-3.88.07-9.06c1.94-11.08,6.48-28.35,6.41-28.91,0-.32.86-3.3-3-4.9a4.34,4.34,0,0,0-5.4,1c-.36,0-.58.89-.58.89s4.18-19.39-8-19.39c-7.58,0-18.1,9.24-23.28,17.6C93,179,86,183.13,78.53,187.71c-2.8,1.77-5.8,3.54-8.5,5.17-.22-.23-.36-.48-.58-.73-14.7-17.5-41.86-29.88-40.71-53.41.43-8.6,3.09-31,52.19-58.41,40.44-22.26,72.65-16.07,78.19-2.41,8,19.53-17.22,55.67-59,61-15.93,2-24.29-4.9-26.45-7.46s-2.53-2.82-3.39-2.34c-1.37.81-.51,3.22,0,4.59,1.22,3.61,6.42,10,15.08,13.25,7.72,2.81,26.38,4.34,49-5.39,25.29-10.93,45.11-41.29,39.27-66.75C167.83,48.93,129.38,40.48,93,54.86,71.44,63.54,48,77,31.16,94.58c-20,20.88-23.2,39-21.91,46.66,4.64,27,38.06,44.59,51.38,57.61L58.84,200c-6.71,3.7-32.14,18.55-38.49,34.21-7.2,17.76,1.16,30.53,6.7,32.23,17.16,5.3,34.8-4.27,44.26-20s8.28-36.2,4-45.55c-.07-.08-.07-.25-.21-.33l5.26-3.45c3.38-2.25,6.77-4.33,9.66-6a76.1,76.1,0,0,0-3.39,19.52c-.72,10,3,23.14,7.85,28.28a8.12,8.12,0,0,0,6.35,2.33c5.68,0,8.21-5.17,11-11.5,3.48-7.63,6.55-16.46,6.55-16.46s-3.88,23.86,6.71,23.86c3.81,0,7.71-5.55,9.44-8.43v.08a5.07,5.07,0,0,1,.29-.57,9.73,9.73,0,0,1,.65-1.13V227c1.51-3,5-9.81,10.16-21.13,6.62-14.54,13-32.77,13-32.77a104.45,104.45,0,0,0,2.53,11.8c1.15,4.34,3.47,9.06,5.47,13.74-1.52,2.42-2.53,3.77-2.53,3.77l.08.08c-1.23,1.85-2.6,3.78-4.1,5.7-5.27,7-11.46,15-12.33,17.28-1,2.73-.79,4.75,1.16,6.35,1.36,1.2,3.88,1.37,6.41,1.2a27.91,27.91,0,0,0,9.65-2.48,31.51,31.51,0,0,0,8.28-4.9,21.74,21.74,0,0,0,8-18.25,40.63,40.63,0,0,0-3-12.93c.51-.72.94-1.53,1.37-2.25A255.15,255.15,0,0,0,194,164.4a104.1,104.1,0,0,0,2.51,11.81c.94,3.78,3,7.76,4.64,11.81-7.64,6.91-12.32,14.95-14,20.17-3,9.71-.65,14.13,3.81,15.18,2,.48,4.9-.57,7-1.6a32.44,32.44,0,0,0,8.87-5.07c5.12-4.26,10.08-10.13,9.81-18.11a36.85,36.85,0,0,0-2.24-10.68c6.48-3,14.84-4.65,25.52-3.29,22.85,3,27.38,18.88,26.51,25.63a16.88,16.88,0,0,1-7.27,11.49c-1.59,1.15-2.09,1.53-1.95,2.33.22,1.2.94,1.12,2.32.88,1.88-.4,12-5.38,12.47-17.76C272.94,191.4,259.46,174.22,235.68,174.37ZM59.27,240.7c-7.57,9.23-18.17,12.68-22.7,9.71-4.9-3.13-3-16.81,6.34-26.51A126.41,126.41,0,0,1,60.7,209l4.64-3.13.51-.32c.36-.25.79-.57,1.16-.8C70.51,218.72,67.27,231,59.27,240.7Zm55.27-41.86c-2.67,7.15-8.12,25.54-11.53,24.5-2.88-.89-4.64-14.78-.58-28.52,2.1-6.91,6.41-15.18,9-18.4,4.11-5.18,8.72-6.83,9.8-4.74,1.35,2.69-5.11,22.62-6.7,27.12Zm45.55,24.34c-1.09.64-2.17,1-2.67.72s.5-1.05.5-1.05,5.69-6.82,8-9.95c1.3-1.85,2.81-3.88,4.47-6.35v.72c0,8.08-7.14,13.62-10.3,15.87Zm35.15-9.06c-.79-.63-.65-2.8,2.1-9.47a35,35,0,0,1,7.86-11.24,17.61,17.61,0,0,1,.78,4.9c-.07,10.37-6.7,14.22-10.74,15.83Z" transform="translate(-9 -47.89)"/></svg>